<?xml version="1.0" encoding="iso-8859-1"?>
<!-- Generator: Adobe Illustrator 19.0.0, SVG Export Plug-In . SVG Version: 6.00 Build 0)  -->
<svg version="1.1" id="Layer_1" xmlns="http://www.w3.org/2000/svg" xmlns:xlink="http://www.w3.org/1999/xlink" x="0px" y="0px"
	 viewBox="0 0 512 512" style="enable-background:new 0 0 512 512;" xml:space="preserve">
<g>
	<g>
		<g>
			<path d="M93.238,220.968h172.463c4.466,0,8.084-3.619,8.084-8.084s-3.618-8.084-8.084-8.084H93.238
				c-4.466,0-8.084,3.619-8.084,8.084S88.772,220.968,93.238,220.968z"/>
			<path d="M93.238,177.853h97.01c4.466,0,8.084-3.619,8.084-8.084s-3.618-8.084-8.084-8.084h-97.01
				c-4.466,0-8.084,3.619-8.084,8.084S88.772,177.853,93.238,177.853z"/>
			<path d="M114.796,398.282h280.253c16.344,0,29.642-13.298,29.642-29.642v-91.082c0-5.206-1.371-10.333-3.968-14.822
				c-2.233-3.865-7.179-5.189-11.044-2.953c-3.866,2.233-5.188,7.179-2.953,11.044c1.176,2.034,1.797,4.362,1.797,6.732v91.082
				c0,7.43-6.044,13.474-13.474,13.474H114.796c-7.43,0-13.474-6.044-13.474-13.474v-91.082c0-7.43,6.044-13.474,13.474-13.474
				h150.905c4.466,0,8.084-3.619,8.084-8.084c0-4.466-3.618-8.084-8.084-8.084H114.796c-16.344,0-29.642,13.298-29.642,29.642
				v91.082C85.154,384.984,98.452,398.282,114.796,398.282z"/>
			<path d="M477.068,412.237c1.684-5.067,2.596-10.484,2.596-16.11V158.989c0-28.231-22.969-51.2-51.2-51.2h-45.81V29.642
				C382.653,13.298,369.355,0,353.01,0h-21.558c-16.344,0-29.642,13.298-29.642,29.642v78.147H83.537
				c-28.231,0-51.2,22.969-51.2,51.2v237.137c0,5.627,0.912,11.043,2.596,16.11C14.43,419.065,0,438.368,0,460.8
				C0,489.031,22.969,512,51.2,512h409.6c28.231,0,51.2-22.969,51.2-51.2C512,438.368,497.57,419.065,477.068,412.237z
				 M317.979,29.642c0-7.43,6.044-13.474,13.474-13.474h21.558c7.43,0,13.474,6.044,13.474,13.474v13.474h-48.505V29.642z
				 M366.484,59.284v188.632h-16.168V59.284H366.484z M317.979,59.284h16.168v188.632h-16.168V59.284z M317.979,264.084h48.505
				v20.66c0,0.579-0.192,1.153-0.539,1.617l-21.558,28.743c-0.704,0.938-1.652,1.078-2.156,1.078c-0.503,0-1.452-0.14-2.156-1.078
				l-21.557-28.741c-0.348-0.466-0.54-1.04-0.54-1.619V264.084z M48.505,158.989c0-19.317,15.715-35.032,35.032-35.032h218.274
				v37.726h-57.667c-4.466,0-8.084,3.619-8.084,8.084s3.618,8.084,8.084,8.084h57.667v106.892c0,4.053,1.339,8.071,3.773,11.318
				l21.558,28.743c3.596,4.796,9.096,7.545,15.091,7.545c5.994,0,11.495-2.75,15.091-7.545l21.559-28.745
				c2.433-3.244,3.772-7.263,3.772-11.316v-63.776h33.954c4.466,0,8.084-3.619,8.084-8.084s-3.619-8.084-8.084-8.084h-33.954
				v-26.947h33.954c4.466,0,8.084-3.619,8.084-8.084s-3.619-8.084-8.084-8.084h-33.954v-37.726h45.81
				c19.317,0,35.032,15.715,35.032,35.032v237.137c0,19.317-15.715,35.032-35.032,35.032H83.537
				c-19.317,0-35.032-15.715-35.032-35.032V158.989z M460.8,495.832H51.2c-19.317,0-35.032-15.715-35.032-35.032
				c0-16.257,11.071-30.113,26.426-33.963c9.349,12.434,24.222,20.49,40.943,20.49h344.926c16.72,0,31.594-8.056,40.943-20.49
				c15.355,3.85,26.426,17.707,26.426,33.963C495.832,480.117,480.117,495.832,460.8,495.832z"/>
			<path d="M235.52,463.495h-1.078c-4.466,0-8.084,3.618-8.084,8.084c0,4.466,3.618,8.084,8.084,8.084h1.078
				c4.466,0,8.084-3.618,8.084-8.084C243.604,467.113,239.986,463.495,235.52,463.495z"/>
			<path d="M433.853,463.495H272.168c-4.466,0-8.084,3.618-8.084,8.084c0,4.466,3.618,8.084,8.084,8.084h161.684
				c4.466,0,8.084-3.618,8.084-8.084C441.937,467.113,438.318,463.495,433.853,463.495z"/>
			<path d="M202.105,463.495h-1.078c-4.466,0-8.084,3.618-8.084,8.084c0,4.466,3.618,8.084,8.084,8.084h1.078
				c4.466,0,8.084-3.618,8.084-8.084C210.189,467.113,206.571,463.495,202.105,463.495z"/>
			<path d="M164.379,463.495H78.147c-4.466,0-8.084,3.618-8.084,8.084c0,4.466,3.618,8.084,8.084,8.084h86.232
				c4.466,0,8.084-3.618,8.084-8.084C172.463,467.113,168.845,463.495,164.379,463.495z"/>
		</g>
	</g>
</g>
<g>
</g>
<g>
</g>
<g>
</g>
<g>
</g>
<g>
</g>
<g>
</g>
<g>
</g>
<g>
</g>
<g>
</g>
<g>
</g>
<g>
</g>
<g>
</g>
<g>
</g>
<g>
</g>
<g>
</g>
</svg>
